<svg width="26" height="26" viewBox="0 0 26 26" fill="none" xmlns="http://www.w3.org/2000/svg">
<circle cx="13" cy="13" r="9" fill="white"/>
<path fill-rule="evenodd" clip-rule="evenodd" d="M12.9896 0C5.81564 0 0 5.81564 0 12.9896C0 20.1636 5.81564 25.9792 12.9896 25.9792C20.1636 25.9792 25.9792 20.1636 25.9792 12.9896C25.9792 5.81564 20.1636 0 12.9896 0ZM10.2124 8.93108C9.85849 8.57717 9.28469 8.57717 8.93077 8.93108C8.57686 9.285 8.57686 9.8588 8.93077 10.2127L11.7077 12.9896L8.93077 15.7665C8.57686 16.1204 8.57686 16.6942 8.93077 17.0481C9.28469 17.4021 9.85849 17.4021 10.2124 17.0481L12.9892 14.2713L15.7661 17.0481C16.12 17.4021 16.6939 17.4021 17.0478 17.0481C17.4017 16.6942 17.4017 16.1204 17.0478 15.7665L14.2709 12.9896L17.0478 10.2127C17.4017 9.8588 17.4017 9.285 17.0478 8.93108C16.6939 8.57717 16.12 8.57717 15.7661 8.93108L12.9892 11.7079L10.2124 8.93108Z" fill="#FF3B0E"/>
</svg>
